@startuml cdpipeline-operator

skinparam class {
    BackgroundColor #white
    BackgroundColor<<autodeploy>> LightGoldenRodYellow
    BackgroundColor<<tbd>> Khaki
}

package cdpipeline-operator {
    class CdPipeline {
        -- metadata --
        String name
        -- spec --
        []String applications
        []String applicationsToPromote
        String deploymentType
        []String inputDockerStreams
        String name
        -- status --
        ActionType action
        Boolean available
        String detailedMessage
        Date lastTimeUpdated
        Result result
        String status
        String username
        String value
    }

    CdPipeline "1" -l-* "1..*" Stage : cdPipeline

    enum DeploymentType {
        CONTAINER
        CUSTOM
    }

    CdPipeline --> DeploymentType : deploymentType

    class Stage {
        -- metadata --
        []String annotations
        String name
        -- spec --
        String cdPipeline
        String description
        String name
        Integer order
        []QualityGate qualityGates
        Source  Source
        String triggerType
        -- status --
        ActionType action
        Boolean available
        String detailedMessage
        Date lastTimeUpdated
        Result result
        String status
        String username
        String value
    }

    Stage "1" --* "1..*" QualityGate : internal structure
    class QualityGate  {
        String autotestName
        String branchName
        String qualityGateType
        String stepName
    }

    QualityGate --> QualityGateType : qualityGateType
    enum QualityGateType {
        AUTOTESTS
        MANUAL
    }

    Stage --> Source : internal structure
    class Source {
        Library library
        String type
    }
    Source --> SourceType : type
    enum SourceType {
        DEFAULT
        LIBRARY
    }
    Source --> Library : internal structure
    class Library {
        String branch
        String name
    }

    Stage --> Stage : \n\n\n<color red>annotation: deploy.edp.epam.com/previous-stage-name</color>

    enum TriggerType {
        AUTO
        MANUAL
    }
    Stage --> TriggerType : triggerType
}

package codebase-operator {
    class Codebase {
        -- metadata --
        String name
        -- spec --
        String buildTool
        String ciTool
        String commitMessagePattern
        String defaultBranch
        String description
        Bool emptyProject
        String framework
        String gitServer
        String gitUrlPath
        String jiraIssueMetadataPayload
        String lang
        Repository repository
        Strategy strategy
        String testReportFramework
        String ticketNamePattern
        String type
        Versioning versioning
        -- status --
        ActionType action
        Boolean available
        String detailedMessage
        Integer failureCount
        String git
        Date lastTimeUpdated
        Result result
        String status
        String username
        String value
    }

    class CodebaseBranch {
        -- metadata --
        String name
        -- spec --
        String branchName
        String codebaseName
        String fromCommit
        Boolean release
        ReleaseJobParams releaseJobParams
        -- status --
        ActionType action
        String build
        String detailedMessage
        Integer failureCount
        Date lastTimeUpdated
        Result result
        String status
        String username
        String value
        []String versionHistory
    }

    class CDStageDeploy <<autodeploy>>{
        -- metadata --
        String name
        -- spec --
        String pipeline
        String stage
        []String tags
    }

    class CodebaseImageStream {
        -- metadata --
        String name
        []String labels
        -- spec --
        String codebase
        String imageName
        []Tag tags
    }
}

Codebase "1..*" o--- "1..*" CdPipeline : applicationsToPromote
CodebaseImageStream "1..*" o--- "1..*" CdPipeline : inputDockerStreams
CodebaseBranch "0..1" o--- "1..*" QualityGate : autotestName+branchName
CodebaseImageStream "1..*" <-- "1" Stage : creates verified stream
CDStageDeploy "1..*" <-- "1" CodebaseImageStream : triggerType: auto\n creates based on labels

@enduml
